# xmcd
#
# Track frame offsets: 
#        150
#        14676
#        27998
#        39249
#        54546
#        71679
#        84454
#        102116
#        122063
#        139220
#        156019
#        175969
#
# Disc length: 2486 seconds
#
# Revision: 0
# Processed by: cddbd v1.5.2PL0 Copyright (c) Steve Scherf et al.
# Submitted via: ExactAudioCopy v0.95b4
#
DISCID=9d09b40c
DTITLE=Zona B - Devil Blues
DYEAR=2007
DGENRE=Blues
TTITLE0=Pawn Shop Blues
TTITLE1=Taste Of Jackie
TTITLE2=Me and My Baby
TTITLE3=Losing My Head
TTITLE4=A Man With Sorrow
TTITLE5=Devil Blues
TTITLE6=Another Line
TTITLE7=Misty Road
TTITLE8=Snatch It Back And Hold It
TTITLE9=Love, Love
TTITLE10=Big Black Mama
TTITLE11=Rakija
EXTD=
EXTT0=
EXTT1=
EXTT2=
EXTT3=
EXTT4=
EXTT5=
EXTT6=
EXTT7=
EXTT8=
EXTT9=
EXTT10=
EXTT11=
PLAYORDER=
